{"accessors":[{"bufferView":2,"componentType":5126,"count":7453,"max":[118.23770141601562,238.39138793945312,244.8251953125],"min":[-118.23770141601562,-230.53631591796875,24.225006103515625],"type":"VEC3","byteOffset":0},{"bufferView":2,"byteOffset":89436,"componentType":5126,"count":7453,"max":[1,1,1],"min":[-1,-1,-1],"type":"VEC3"},{"bufferView":3,"componentType":5126,"count":7453,"max":[1,1,1,1],"min":[-1,-1,-1,-1],"type":"VEC4","byteOffset":0},{"bufferView":1,"componentType":5126,"count":7453,"max":[0.9980469942092896,0.9969390034675598],"min":[0.0024759999942034483,0.0014649999793618917],"type":"VEC2","byteOffset":0},{"bufferView":0,"componentType":5125,"count":22407,"max":[7452],"min":[0],"type":"SCALAR","byteOffset":0},{"bufferView":2,"byteOffset":178872,"componentType":5126,"count":8,"max":[13.915799140930176,181.49609375,97.01326751708984],"min":[-17.249900817871094,-205.82640075683594,31.60841941833496],"type":"VEC3"},{"bufferView":2,"byteOffset":178968,"componentType":5126,"count":8,"max":[1,0,0],"min":[-1,0,0],"type":"VEC3"},{"bufferView":3,"byteOffset":119248,"componentType":5126,"count":8,"max":[0,0.9999756217002869,0.013980829156935215,1],"min":[0,0.9999023675918579,-0.006992221809923649,-1],"type":"VEC4"},{"bufferView":1,"byteOffset":59624,"componentType":5126,"count":8,"max":[0.9956049919128418,0.9917219877243042],"min":[0.2595210075378418,0.24462899565696716],"type":"VEC2"},{"bufferView":0,"byteOffset":89628,"componentType":5125,"count":12,"max":[7],"min":[0],"type":"SCALAR"},{"bufferView":2,"byteOffset":179064,"componentType":5126,"count":1344,"max":[32.430301666259766,204.07667541503906,189.61428833007812],"min":[-32.43389892578125,-111.38372802734375,22.02561378479004],"type":"VEC3"},{"bufferView":2,"byteOffset":195192,"componentType":5126,"count":1344,"max":[1,1,1],"min":[-1,-1,-1],"type":"VEC3"},{"bufferView":3,"byteOffset":119376,"componentType":5126,"count":1344,"max":[1,1,1,1],"min":[-1,-1,-1,-1],"type":"VEC4"},{"bufferView":1,"byteOffset":59688,"componentType":5126,"count":1344,"max":[1.1113280057907104,0.9951519966125488],"min":[0.0025229998864233494,0.12206999957561493],"type":"VEC2"},{"bufferView":0,"byteOffset":89676,"componentType":5125,"count":3054,"max":[1343],"min":[0],"type":"SCALAR"},{"bufferView":2,"byteOffset":211320,"componentType":5126,"count":8,"max":[17.715301513671875,203.68307495117188,149.2977294921875],"min":[-17.7189998626709,203.32687377929688,129.67694091796875],"type":"VEC3"},{"bufferView":2,"byteOffset":211416,"componentType":5126,"count":8,"max":[0,1,7.77684817876434e-7],"min":[0,-1,0],"type":"VEC3"},{"bufferView":3,"byteOffset":140880,"componentType":5126,"count":8,"max":[-1,0,0,1],"min":[-1,0,0,-1],"type":"VEC4"},{"bufferView":1,"byteOffset":70440,"componentType":5126,"count":8,"max":[0.9946290254592896,0.993861973285675],"min":[0.0047109997831285,0.0039059999398887157],"type":"VEC2"},{"bufferView":0,"byteOffset":101892,"componentType":5125,"count":12,"max":[7],"min":[0],"type":"SCALAR"},{"bufferView":2,"byteOffset":211512,"componentType":5126,"count":40,"max":[117.32840728759766,-30.031240463256836,244.45578002929688],"min":[-117.38249969482422,-37.76713943481445,225.72760009765625],"type":"VEC3"},{"bufferView":2,"byteOffset":211992,"componentType":5126,"count":40,"max":[0.3210185766220093,0.9476889371871948,-0.01844247244298458],"min":[-0.32638558745384216,0.9449763298034668,-0.023322314023971558],"type":"VEC3"},{"bufferView":3,"byteOffset":141008,"componentType":5126,"count":40,"max":[0.9478504061698914,-0.3183884620666504,0.03509385138750076,1],"min":[-0.947505533695221,-0.3268967568874359,-0.030576512217521667,-1],"type":"VEC4"},{"bufferView":1,"byteOffset":70504,"componentType":5126,"count":40,"max":[0.9873049855232239,0.11816400289535522],"min":[0.8520510196685791,0.013671999797224998],"type":"VEC2"},{"bufferView":0,"byteOffset":101940,"componentType":5125,"count":108,"max":[39],"min":[0],"type":"SCALAR"},{"bufferView":2,"byteOffset":212472,"componentType":5126,"count":1360,"max":[16.221500396728516,213.4176788330078,128.1270751953125],"min":[-16.225099563598633,-236.25172424316406,-0.31667500734329224],"type":"VEC3"},{"bufferView":2,"byteOffset":228792,"componentType":5126,"count":1360,"max":[1,0.9999759197235107,0.9999768733978271],"min":[-1,-0.9999754428863525,-0.9999757409095764],"type":"VEC3"},{"bufferView":3,"byteOffset":141648,"componentType":5126,"count":1360,"max":[0.9999781847000122,0.9999922513961792,0.9019890427589417,1],"min":[-0.8976931571960449,-0.9019487500190735,-0.9019995331764221,-1],"type":"VEC4"},{"bufferView":1,"byteOffset":70824,"componentType":5126,"count":1360,"max":[0.9428709745407104,0.9630129933357239],"min":[0.006618000101298094,0.004395000170916319],"type":"VEC2"},{"bufferView":0,"byteOffset":102372,"componentType":5125,"count":4344,"max":[1359],"min":[0],"type":"SCALAR"}],"asset":{"extras":{"author":"kathiastaff (https://sketchfab.com/kathiastaff)","license":"CC-BY-4.0 (http://creativecommons.org/licenses/by/4.0/)","source":"https://sketchfab.com/models/7a6754c86d984ed8acfac6e75ee2251e","title":"Harley- Davidson"},"generator":"Sketchfab-3.19.1","version":"2.0"},"bufferViews":[{"buffer":0,"byteLength":119748,"byteOffset":0,"name":"floatBufferViews","target":34963},{"buffer":0,"byteLength":81704,"byteOffset":119748,"byteStride":8,"name":"floatBufferViews","target":34962},{"buffer":0,"byteLength":245112,"byteOffset":201452,"byteStride":12,"name":"floatBufferViews","target":34962},{"buffer":0,"byteLength":163408,"byteOffset":446564,"byteStride":16,"name":"floatBufferViews","target":34962},{"buffer":0,"byteOffset":609972,"byteLength":29177},{"buffer":0,"byteOffset":639152,"byteLength":12870},{"buffer":0,"byteOffset":652024,"byteLength":70663},{"buffer":0,"byteOffset":722688,"byteLength":33110},{"buffer":0,"byteOffset":755800,"byteLength":339580},{"buffer":0,"byteOffset":1095380,"byteLength":153276},{"buffer":0,"byteOffset":1248656,"byteLength":107037},{"buffer":0,"byteOffset":1355696,"byteLength":44739},{"buffer":0,"byteOffset":1400436,"byteLength":339580},{"buffer":0,"byteOffset":1740016,"byteLength":153276},{"buffer":0,"byteOffset":1893292,"byteLength":339580},{"buffer":0,"byteOffset":2232872,"byteLength":153309}],"buffers":[{"byteLength":2386184,"uri":"data:application/octet-stream;base64,"}],"images":[{"bufferView":4,"mimeType":"image/png"},{"bufferView":5,"mimeType":"image/png"},{"bufferView":6,"mimeType":"image/png"},{"bufferView":7,"mimeType":"image/png"},{"bufferView":8,"mimeType":"image/png"},{"bufferView":9,"mimeType":"image/png"},{"bufferView":10,"mimeType":"image/png"},{"bufferView":11,"mimeType":"image/png"},{"bufferView":12,"mimeType":"image/png"},{"bufferView":13,"mimeType":"image/png"},{"bufferView":14,"mimeType":"image/png"},{"bufferView":15,"mimeType":"image/png"}],"materials":[{"doubleSided":true,"emissiveFactor":[0,0,0],"name":"bike","pbrMetallicRoughness":{"baseColorFactor":[1,1,1,1],"baseColorTexture":{"index":4,"texCoord":0},"metallicFactor":1,"metallicRoughnessTexture":{"index":5,"texCoord":0},"roughnessFactor":0.6},"alphaMode":"OPAQUE"},{"doubleSided":true,"emissiveFactor":[0,0,0],"name":"brake","pbrMetallicRoughness":{"baseColorFactor":[1,1,1,1],"baseColorTexture":{"index":6,"texCoord":0},"metallicFactor":1,"metallicRoughnessTexture":{"index":7,"texCoord":0},"roughnessFactor":0.6},"alphaMode":"OPAQUE"},{"doubleSided":true,"emissiveFactor":[0,0,0],"name":"frame","pbrMetallicRoughness":{"baseColorFactor":[1,1,1,1],"baseColorTexture":{"index":10,"texCoord":0},"metallicFactor":0,"metallicRoughnessTexture":{"index":11,"texCoord":0},"roughnessFactor":1},"alphaMode":"OPAQUE"},{"doubleSided":true,"emissiveFactor":[0,0,0],"name":"license_plate","pbrMetallicRoughness":{"baseColorFactor":[1,1,1,1],"baseColorTexture":{"index":0,"texCoord":0},"metallicFactor":1,"metallicRoughnessTexture":{"index":1,"texCoord":0},"roughnessFactor":0.6},"alphaMode":"OPAQUE"},{"doubleSided":true,"emissiveFactor":[0,0,0],"name":"mirror","pbrMetallicRoughness":{"baseColorFactor":[1,1,1,1],"baseColorTexture":{"index":8,"texCoord":0},"metallicFactor":1,"metallicRoughnessTexture":{"index":9,"texCoord":0},"roughnessFactor":0.6},"alphaMode":"OPAQUE"},{"doubleSided":true,"emissiveFactor":[0,0,0],"name":"wheel","pbrMetallicRoughness":{"baseColorFactor":[1,1,1,1],"baseColorTexture":{"index":2,"texCoord":0},"metallicFactor":1,"metallicRoughnessTexture":{"index":3,"texCoord":0},"roughnessFactor":0.6},"alphaMode":"OPAQUE"}],"meshes":[{"primitives":[{"attributes":{"NORMAL":1,"POSITION":0,"TANGENT":2,"TEXCOORD_0":3},"indices":4,"material":0,"mode":4}]},{"primitives":[{"attributes":{"NORMAL":6,"POSITION":5,"TANGENT":7,"TEXCOORD_0":8},"indices":9,"material":1,"mode":4}]},{"primitives":[{"attributes":{"NORMAL":11,"POSITION":10,"TANGENT":12,"TEXCOORD_0":13},"indices":14,"material":2,"mode":4}]},{"primitives":[{"attributes":{"NORMAL":16,"POSITION":15,"TANGENT":17,"TEXCOORD_0":18},"indices":19,"material":3,"mode":4}]},{"primitives":[{"attributes":{"NORMAL":21,"POSITION":20,"TANGENT":22,"TEXCOORD_0":23},"indices":24,"material":4,"mode":4}]},{"primitives":[{"attributes":{"NORMAL":26,"POSITION":25,"TANGENT":27,"TEXCOORD_0":28},"indices":29,"material":5,"mode":4}]}],"nodes":[{"children":[1],"name":"RootNode (gltf orientation matrix)","rotation":[-0.7071067811865475,0,0,0.7071067811865476],"translation":[0,0,0],"scale":[1,1,1]},{"children":[2],"name":"RootNode (model correction matrix)"},{"children":[3,4,5,6,7,8],"name":"HarleyDavidson.Kathia.obj.cleaner.gles"},{"mesh":0,"name":""},{"mesh":1,"name":""},{"mesh":2,"name":""},{"mesh":3,"name":""},{"mesh":4,"name":""},{"mesh":5,"name":""}],"samplers":[{"magFilter":9729,"minFilter":9987,"wrapS":10497,"wrapT":10497},{"magFilter":9729,"minFilter":9729,"wrapS":33071,"wrapT":33071}],"scene":0,"scenes":[{"name":"OSG_Scene","nodes":[0]}],"textures":[{"sampler":0,"source":0},{"sampler":0,"source":1},{"sampler":0,"source":2},{"sampler":0,"source":3},{"sampler":0,"source":4},{"sampler":0,"source":5},{"sampler":1,"source":6},{"sampler":0,"source":7},{"sampler":0,"source":8},{"sampler":0,"source":9},{"sampler":0,"source":10},{"sampler":0,"source":11}]}
